{"asset":{"generator":"glTF-Transform v4.0.2","version":"2.0","extras":{"author":"danjirawat (https://sketchfab.com/danjirawat)","license":"CC-BY-4.0 (http://creativecommons.org/licenses/by/4.0/)","source":"https://sketchfab.com/3d-models/aj-bellydancing-1ec78ff1f5bf48a49e822c0323863064","title":"AJ Bellydancing"}},"accessors":[{"type":"VEC3","componentType":5126,"count":4889,"max":[81.76734924316406,185.646240234375,28.599990844726562],"min":[-81.76713562011719,-0.4301501512527466,-30.36829948425293],"bufferView":0,"byteOffset":0},{"type":"VEC3","componentType":5126,"count":4889,"bufferView":0,"byteOffset":12},{"type":"VEC4","componentType":5126,"count":4889,"bufferView":0,"byteOffset":24},{"type":"VEC2","componentType":5126,"count":4889,"bufferView":0,"byteOffset":40},{"type":"VEC2","componentType":5126,"count":4889,"bufferView":0,"byteOffset":48},{"type":"VEC2","componentType":5126,"count":4889,"bufferView":0,"byteOffset":56},{"type":"VEC2","componentType":5126,"count":4889,"bufferView":0,"byteOffset":64},{"type":"VEC2","componentType":5126,"count":4889,"bufferView":0,"byteOffset":72},{"type":"VEC4","componentType":5123,"count":4889,"bufferView":0,"byteOffset":80},{"type":"VEC4","componentType":5126,"count":4889,"bufferView":0,"byteOffset":88},{"type":"SCALAR","componentType":5125,"count":23196,"bufferView":1,"byteOffset":0},{"type":"SCALAR","componentType":5125,"count":204,"bufferView":1,"byteOffset":92784},{"type":"SCALAR","componentType":5125,"count":456,"bufferView":1,"byteOffset":93600},{"type":"SCALAR","componentType":5125,"count":306,"bufferView":1,"byteOffset":95424},{"type":"VEC3","componentType":5126,"count":49,"max":[12.122973442077637,152.9000701904297,26.146163940429688],"min":[-12.122986793518066,140.3844451904297,17.76230239868164],"bufferView":2,"byteOffset":0},{"type":"VEC3","componentType":5126,"count":49,"bufferView":2,"byteOffset":12},{"type":"VEC2","componentType":5126,"count":49,"bufferView":2,"byteOffset":24},{"type":"VEC2","componentType":5126,"count":49,"bufferView":2,"byteOffset":32},{"type":"VEC2","componentType":5126,"count":49,"bufferView":2,"byteOffset":40},{"type":"VEC4","componentType":5123,"count":49,"bufferView":2,"byteOffset":48},{"type":"VEC4","componentType":5126,"count":49,"bufferView":2,"byteOffset":56},{"type":"VEC3","componentType":5126,"count":97,"max":[14.44411563873291,165.52352905273438,26.181306838989258],"min":[-14.444117546081543,151.30506896972656,16.49273109436035],"bufferView":3,"byteOffset":0},{"type":"VEC3","componentType":5126,"count":97,"bufferView":3,"byteOffset":12},{"type":"VEC2","componentType":5126,"count":97,"bufferView":3,"byteOffset":24},{"type":"VEC2","componentType":5126,"count":97,"bufferView":3,"byteOffset":32},{"type":"VEC2","componentType":5126,"count":97,"bufferView":3,"byteOffset":40},{"type":"VEC4","componentType":5123,"count":97,"bufferView":3,"byteOffset":48},{"type":"VEC4","componentType":5126,"count":97,"bufferView":3,"byteOffset":56},{"type":"VEC3","componentType":5126,"count":72,"max":[15.205982208251953,172.8410186767578,26.010862350463867],"min":[-15.205953598022461,158.85494995117188,13.505616188049316],"bufferView":4,"byteOffset":0},{"type":"VEC3","componentType":5126,"count":72,"bufferView":4,"byteOffset":12},{"type":"VEC2","componentType":5126,"count":72,"bufferView":4,"byteOffset":24},{"type":"VEC2","componentType":5126,"count":72,"bufferView":4,"byteOffset":32},{"type":"VEC2","componentType":5126,"count":72,"bufferView":4,"byteOffset":40},{"type":"VEC4","componentType":5123,"count":72,"bufferView":4,"byteOffset":48},{"type":"VEC4","componentType":5126,"count":72,"bufferView":4,"byteOffset":56},{"type":"MAT4","componentType":5126,"count":75,"bufferView":5,"byteOffset":0},{"type":"SCALAR","componentType":5126,"count":762,"max":[25.366666793823242],"min":[0],"bufferView":6,"byteOffset":0},{"type":"VEC4","componentType":5126,"count":762,"bufferView":6,"byteOffset":3048},{"type":"SCALAR","componentType":5126,"count":762,"max":[25.366666793823242],"min":[0],"bufferView":6,"byteOffset":15240},{"type":"VEC4","componentType":5126,"count":762,"bufferView":6,"byteOffset":18288},{"type":"SCALAR","componentType":5126,"count":762,"max":[25.366666793823242],"min":[0],"bufferView":6,"byteOffset":30480},{"type":"VEC4","componentType":5126,"count":762,"bufferView":6,"byteOffset":33528},{"type":"SCALAR","componentType":5126,"count":762,"max":[25.366666793823242],"min":[0],"bufferView":6,"byteOffset":45720},{"type":"VEC4","componentType":5126,"count":762,"bufferView":6,"byteOffset":48768},{"type":"SCALAR","componentType":5126,"count":762,"max":[25.366666793823242],"min":[0],"bufferView":6,"byteOffset":60960},{"type":"VEC4","componentType":5126,"count":762,"bufferView":6,"byteOffset":64008},{"type":"SCALAR","componentType":5126,"count":762,"max":[25.366666793823242],"min":[0],"bufferView":6,"byteOffset":76200},{"type":"VEC4","componentType":5126,"count":762,"bufferView":6,"byteOffset":79248},{"type":"SCALAR","componentType":5126,"count":1,"max":[0],"min":[0],"bufferView":6,"byteOffset":91440},{"type":"VEC4","componentType":5126,"count":1,"bufferView":6,"byteOffset":91444},{"type":"SCALAR","componentType":5126,"count":660,"max":[25.366666793823242],"min":[0],"bufferView":6,"byteOffset":91460},{"type":"VEC3","componentType":5126,"count":660,"bufferView":6,"byteOffset":94100},{"type":"SCALAR","componentType":5126,"count":762,"max":[25.366666793823242],"min":[0],"bufferView":6,"byteOffset":102020},{"type":"VEC4","componentType":5126,"count":762,"bufferView":6,"byteOffset":105068},{"type":"SCALAR","componentType":5126,"count":713,"max":[25.366666793823242],"min":[0],"bufferView":6,"byteOffset":117260},{"type":"VEC3","componentType":5126,"count":713,"bufferView":6,"byteOffset":120112},{"type":"SCALAR","componentType":5126,"count":762,"max":[25.366666793823242],"min":[0],"bufferView":6,"byteOffset":128668},{"type":"VEC4","componentType":5126,"count":762,"bufferView":6,"byteOffset":131716},{"type":"SCALAR","componentType":5126,"count":1,"max":[0],"min":[0],"bufferView":6,"byteOffset":143908},{"type":"VEC4","componentType":5126,"count":1,"bufferView":6,"byteOffset":143912},{"type":"SCALAR","componentType":5126,"count":1,"max":[0],"min":[0],"bufferView":6,"byteOffset":143928},{"type":"VEC4","componentType":5126,"count":1,"bufferView":6,"byteOffset":143932},{"type":"SCALAR","componentType":5126,"count":762,"max":[25.366666793823242],"min":[0],"bufferView":6,"byteOffset":143948},{"type":"VEC4","componentType":5126,"count":762,"bufferView":6,"byteOffset":146996},{"type":"SCALAR","componentType":5126,"count":762,"max":[25.366666793823242],"min":[0],"bufferView":6,"byteOffset":159188},{"type":"VEC4","componentType":5126,"count":762,"bufferView":6,"byteOffset":162236},{"type":"SCALAR","componentType":5126,"count":762,"max":[25.366666793823242],"min":[0],"bufferView":6,"byteOffset":174428},{"type":"VEC4","componentType":5126,"count":762,"bufferView":6,"byteOffset":177476},{"type":"SCALAR","componentType":5126,"count":762,"max":[25.366666793823242],"min":[0],"bufferView":6,"byteOffset":189668},{"type":"VEC4","componentType":5126,"count":762,"bufferView":6,"byteOffset":192716},{"type":"SCALAR","componentType":5126,"count":762,"max":[25.366666793823242],"min":[0],"bufferView":6,"byteOffset":204908},{"type":"VEC4","componentType":5126,"count":762,"bufferView":6,"byteOffset":207956},{"type":"SCALAR","componentType":5126,"count":762,"max":[25.366666793823242],"min":[0],"bufferView":6,"byteOffset":220148},{"type":"VEC4","componentType":5126,"count":762,"bufferView":6,"byteOffset":223196},{"type":"SCALAR","componentType":5126,"count":762,"max":[25.366666793823242],"min":[0],"bufferView":6,"byteOffset":235388},{"type":"VEC4","componentType":5126,"count":762,"bufferView":6,"byteOffset":238436},{"type":"SCALAR","componentType":5126,"count":762,"max":[25.366666793823242],"min":[0],"bufferView":6,"byteOffset":250628},{"type":"VEC4","componentType":5126,"count":762,"bufferView":6,"byteOffset":253676},{"type":"SCALAR","componentType":5126,"count":720,"max":[25.366666793823242],"min":[0],"bufferView":6,"byteOffset":265868},{"type":"VEC3","componentType":5126,"count":720,"bufferView":6,"byteOffset":268748},{"type":"SCALAR","componentType":5126,"count":762,"max":[25.366666793823242],"min":[0],"bufferView":6,"byteOffset":277388},{"type":"VEC4","componentType":5126,"count":762,"bufferView":6,"byteOffset":280436},{"type":"SCALAR","componentType":5126,"count":642,"max":[25.366666793823242],"min":[0],"bufferView":6,"byteOffset":292628},{"type":"VEC3","componentType":5126,"count":642,"bufferView":6,"byteOffset":295196},{"type":"SCALAR","componentType":5126,"count":762,"max":[25.366666793823242],"min":[0],"bufferView":6,"byteOffset":302900},{"type":"VEC4","componentType":5126,"count":762,"bufferView":6,"byteOffset":305948},{"type":"SCALAR","componentType":5126,"count":762,"max":[25.366666793823242],"min":[0],"bufferView":6,"byteOffset":318140},{"type":"VEC4","componentType":5126,"count":762,"bufferView":6,"byteOffset":321188},{"type":"SCALAR","componentType":5126,"count":762,"max":[25.366666793823242],"min":[0],"bufferView":6,"byteOffset":333380},{"type":"VEC4","componentType":5126,"count":762,"bufferView":6,"byteOffset":336428},{"type":"SCALAR","componentType":5126,"count":1,"max":[0],"min":[0],"bufferView":6,"byteOffset":348620},{"type":"VEC4","componentType":5126,"count":1,"bufferView":6,"byteOffset":348624},{"type":"SCALAR","componentType":5126,"count":762,"max":[25.366666793823242],"min":[0],"bufferView":6,"byteOffset":348640},{"type":"VEC4","componentType":5126,"count":762,"bufferView":6,"byteOffset":351688},{"type":"SCALAR","componentType":5126,"count":762,"max":[25.366666793823242],"min":[0],"bufferView":6,"byteOffset":363880},{"type":"VEC4","componentType":5126,"count":762,"bufferView":6,"byteOffset":366928},{"type":"SCALAR","componentType":5126,"count":762,"max":[25.366666793823242],"min":[0],"bufferView":6,"byteOffset":379120},{"type":"VEC4","componentType":5126,"count":762,"bufferView":6,"byteOffset":382168},{"type":"SCALAR","componentType":5126,"count":762,"max":[25.366666793823242],"min":[0],"bufferView":6,"byteOffset":394360},{"type":"VEC4","componentType":5126,"count":762,"bufferView":6,"byteOffset":397408},{"type":"SCALAR","componentType":5126,"count":762,"max":[25.366666793823242],"min":[0],"bufferView":6,"byteOffset":409600},{"type":"VEC4","componentType":5126,"count":762,"bufferView":6,"byteOffset":412648},{"type":"SCALAR","componentType":5126,"count":762,"max":[25.366666793823242],"min":[0],"bufferView":6,"byteOffset":424840},{"type":"VEC4","componentType":5126,"count":762,"bufferView":6,"byteOffset":427888},{"type":"SCALAR","componentType":5126,"count":762,"max":[25.366666793823242],"min":[0],"bufferView":6,"byteOffset":440080},{"type":"VEC4","componentType":5126,"count":762,"bufferView":6,"byteOffset":443128},{"type":"SCALAR","componentType":5126,"count":762,"max":[25.366666793823242],"min":[0],"bufferView":6,"byteOffset":455320},{"type":"VEC4","componentType":5126,"count":762,"bufferView":6,"byteOffset":458368},{"type":"SCALAR","componentType":5126,"count":762,"max":[25.366666793823242],"min":[0],"bufferView":6,"byteOffset":470560},{"type":"VEC4","componentType":5126,"count":762,"bufferView":6,"byteOffset":473608},{"type":"SCALAR","componentType":5126,"count":712,"max":[25.366666793823242],"min":[0],"bufferView":6,"byteOffset":485800},{"type":"VEC3","componentType":5126,"count":712,"bufferView":6,"byteOffset":488648},{"type":"SCALAR","componentType":5126,"count":762,"max":[25.366666793823242],"min":[0],"bufferView":6,"byteOffset":497192},{"type":"VEC4","componentType":5126,"count":762,"bufferView":6,"byteOffset":500240},{"type":"SCALAR","componentType":5126,"count":604,"max":[25.366666793823242],"min":[0],"bufferView":6,"byteOffset":512432},{"type":"VEC3","componentType":5126,"count":604,"bufferView":6,"byteOffset":514848},{"type":"SCALAR","componentType":5126,"count":762,"max":[25.366666793823242],"min":[0],"bufferView":6,"byteOffset":522096},{"type":"VEC4","componentType":5126,"count":762,"bufferView":6,"byteOffset":525144},{"type":"SCALAR","componentType":5126,"count":762,"max":[25.366666793823242],"min":[0],"bufferView":6,"byteOffset":537336},{"type":"VEC4","componentType":5126,"count":762,"bufferView":6,"byteOffset":540384},{"type":"SCALAR","componentType":5126,"count":762,"max":[25.366666793823242],"min":[0],"bufferView":6,"byteOffset":552576},{"type":"VEC4","componentType":5126,"count":762,"bufferView":6,"byteOffset":555624},{"type":"SCALAR","componentType":5126,"count":1,"max":[0],"min":[0],"bufferView":6,"byteOffset":567816},{"type":"VEC3","componentType":5126,"count":1,"bufferView":6,"byteOffset":567820},{"type":"SCALAR","componentType":5126,"count":1,"max":[0],"min":[0],"bufferView":6,"byteOffset":567832},{"type":"VEC4","componentType":5126,"count":1,"bufferView":6,"byteOffset":567836},{"type":"SCALAR","componentType":5126,"count":1,"max":[0],"min":[0],"bufferView":6,"byteOffset":567852},{"type":"VEC4","componentType":5126,"count":1,"bufferView":6,"byteOffset":567856},{"type":"SCALAR","componentType":5126,"count":1,"max":[0],"min":[0],"bufferView":6,"byteOffset":567872},{"type":"VEC4","componentType":5126,"count":1,"bufferView":6,"byteOffset":567876},{"type":"SCALAR","componentType":5126,"count":1,"max":[0],"min":[0],"bufferView":6,"byteOffset":567892},{"type":"VEC4","componentType":5126,"count":1,"bufferView":6,"byteOffset":567896},{"type":"SCALAR","componentType":5126,"count":1,"max":[0],"min":[0],"bufferView":6,"byteOffset":567912},{"type":"VEC4","componentType":5126,"count":1,"bufferView":6,"byteOffset":567916},{"type":"SCALAR","componentType":5126,"count":719,"max":[25.366666793823242],"min":[0],"bufferView":6,"byteOffset":567932},{"type":"VEC3","componentType":5126,"count":719,"bufferView":6,"byteOffset":570808},{"type":"SCALAR","componentType":5126,"count":762,"max":[25.366666793823242],"min":[0],"bufferView":6,"byteOffset":579436},{"type":"VEC4","componentType":5126,"count":762,"bufferView":6,"byteOffset":582484},{"type":"SCALAR","componentType":5126,"count":716,"max":[25.366666793823242],"min":[0],"bufferView":6,"byteOffset":594676},{"type":"VEC3","componentType":5126,"count":716,"bufferView":6,"byteOffset":597540},{"type":"SCALAR","componentType":5126,"count":762,"max":[25.366666793823242],"min":[0],"bufferView":6,"byteOffset":606132},{"type":"VEC4","componentType":5126,"count":762,"bufferView":6,"byteOffset":609180},{"type":"SCALAR","componentType":5126,"count":701,"max":[25.366666793823242],"min":[0],"bufferView":6,"byteOffset":621372},{"type":"VEC3","componentType":5126,"count":701,"bufferView":6,"byteOffset":624176},{"type":"SCALAR","componentType":5126,"count":762,"max":[25.366666793823242],"min":[0],"bufferView":6,"byteOffset":632588},{"type":"VEC4","componentType":5126,"count":762,"bufferView":6,"byteOffset":635636},{"type":"SCALAR","componentType":5126,"count":799,"max":[25.366666793823242],"min":[0],"bufferView":6,"byteOffset":647828},{"type":"VEC3","componentType":5126,"count":799,"bufferView":6,"byteOffset":651024},{"type":"SCALAR","componentType":5126,"count":799,"max":[25.366666793823242],"min":[0],"bufferView":6,"byteOffset":660612},{"type":"VEC4","componentType":5126,"count":799,"bufferView":6,"byteOffset":663808}],"bufferViews":[{"buffer":0,"byteOffset":0,"byteLength":508456,"byteStride":104,"target":34962},{"buffer":0,"byteOffset":508456,"byteLength":96648,"target":34963},{"buffer":0,"byteOffset":605104,"byteLength":3528,"byteStride":72,"target":34962},{"buffer":0,"byteOffset":608632,"byteLength":6984,"byteStride":72,"target":34962},{"buffer":0,"byteOffset":615616,"byteLength":5184,"byteStride":72,"target":34962},{"buffer":0,"byteOffset":620800,"byteLength":4800},{"buffer":0,"byteOffset":625600,"byteLength":676592}],"samplers":[{"magFilter":9729,"minFilter":9987,"wrapS":10497,"wrapT":10497}],"textures":[{"source":0,"sampler":0},{"source":1,"sampler":0},{"source":4,"sampler":0},{"source":2,"sampler":0},{"source":3,"sampler":0}],"images":[{"mimeType":"image/jpeg","uri":"baseColor_1.jpg"},{"mimeType":"image/png","uri":"normal_1.png"},{"mimeType":"image/png","uri":"baseColor_2.png"},{"mimeType":"image/png","uri":"specular_1.png"},{"mimeType":"image/png","uri":"metallicRoughness_1.png"}],"buffers":[{"uri":"boy.bin","byteLength":1302192}],"materials":[{"name":"Boy01_Body_MAT","doubleSided":true,"pbrMetallicRoughness":{"metallicFactor":0,"baseColorTexture":{"index":0},"metallicRoughnessTexture":{"index":2,"texCoord":1}},"normalTexture":{"index":1,"texCoord":2},"extensions":{"KHR_materials_ior":{"ior":1000},"KHR_materials_specular":{"specularTexture":{"index":4,"texCoord":1},"specularColorTexture":{"index":4,"texCoord":1}}}},{"name":"Boy01_Mouth_MAT1","alphaMode":"BLEND","doubleSided":true,"pbrMetallicRoughness":{"roughnessFactor":0.6,"metallicFactor":0,"baseColorTexture":{"index":3}},"extensions":{"KHR_materials_ior":{"ior":1000},"KHR_materials_specular":{"specularColorFactor":[0.05,0.05,0.05]}}},{"name":"Boy01_Eyes_MAT1","alphaMode":"BLEND","doubleSided":true,"pbrMetallicRoughness":{"roughnessFactor":0.6,"metallicFactor":0,"baseColorTexture":{"index":3}},"extensions":{"KHR_materials_ior":{"ior":1000},"KHR_materials_specular":{"specularColorFactor":[0.05,0.05,0.05]}}},{"name":"Boy01_Brows_MAT1","alphaMode":"BLEND","doubleSided":true,"pbrMetallicRoughness":{"roughnessFactor":0.6,"metallicFactor":0,"baseColorTexture":{"index":3}},"extensions":{"KHR_materials_ior":{"ior":1000},"KHR_materials_specular":{"specularColorFactor":[0.05,0.05,0.05]}}}],"meshes":[{"name":"Boy01_Body_Geo_Boy01_Body_MAT_0","primitives":[{"attributes":{"JOINTS_0":8,"NORMAL":1,"POSITION":0,"TANGENT":2,"TEXCOORD_0":3,"TEXCOORD_1":3,"TEXCOORD_2":3,"TEXCOORD_3":4,"TEXCOORD_4":5,"TEXCOORD_5":6,"TEXCOORD_6":7,"WEIGHTS_0":9},"mode":4,"material":0,"indices":10}]},{"name":"h_Geo_Boy01_Mouth_MAT1_0","primitives":[{"attributes":{"JOINTS_0":19,"NORMAL":15,"POSITION":14,"TEXCOORD_0":16,"TEXCOORD_1":16,"TEXCOORD_2":17,"TEXCOORD_3":18,"WEIGHTS_0":20},"mode":4,"material":1,"indices":11}]},{"name":"Boy01_Eyes_Geo_Boy01_Eyes_MAT1_0","primitives":[{"attributes":{"JOINTS_0":26,"NORMAL":22,"POSITION":21,"TEXCOORD_0":23,"TEXCOORD_1":23,"TEXCOORD_2":24,"TEXCOORD_3":25,"WEIGHTS_0":27},"mode":4,"material":2,"indices":12}]},{"name":"Boy01_Brows_Geo_Boy01_Brows_MAT1_0","primitives":[{"attributes":{"JOINTS_0":33,"NORMAL":29,"POSITION":28,"TEXCOORD_0":30,"TEXCOORD_1":30,"TEXCOORD_2":31,"TEXCOORD_3":32,"WEIGHTS_0":34},"mode":4,"material":3,"indices":13}]}],"nodes":[{"name":"Sketchfab_model","rotation":[-0.7071067811865475,0,0,0.7071067811865476],"scale":[0.010279033333063126,0.010279033333063126,0.010279033333063126],"children":[1]},{"name":"417e291747314a2d89127732c55daad0.fbx","rotation":[0.7071067811865475,0,0,0.7071067811865476],"children":[2]},{"name":"Object_2","children":[3]},{"name":"RootNode","children":[4]},{"name":"Object_4","children":[5,6,7,8,9,84,85,86,87]},{"name":"_rootJoint","children":[10]},{"name":"Object_6","mesh":0,"skin":0},{"name":"Object_7","mesh":1,"skin":0},{"name":"Object_8","mesh":2,"skin":0},{"name":"Object_9","mesh":3,"skin":0},{"name":"Hips_01","translation":[0,83.20806884765625,2.550922155380249],"children":[11,24,83]},{"name":"Pelvis_02","children":[12,18]},{"name":"LeftUpLeg_03","translation":[8.479694366455078,-4.795516014099121,-0.3790534734725952],"children":[13]},{"name":"LeftLeg_04","translation":[0.4850517213344574,-32.55147171020508,0.11286281049251556],"children":[14,17]},{"name":"LeftFoot_05","translation":[0.43803369998931885,-32.63566970825195,-3.012640953063965],"children":[15,16]},{"name":"LeftToeBase_06","translation":[0.9701685309410095,-13.22535228729248,11.86422348022461]},{"name":"LFootTongue_07","translation":[1.1423989534378052,-1.0597875118255615,6.6651611328125]},{"name":"LeftPantLeg_08","translation":[1.1525492668151855,-16.51932144165039,-2.284731388092041]},{"name":"RightUpLeg_09","translation":[-8.479694366455078,-4.795516014099121,-0.3790534734725952],"children":[19]},{"name":"RightLeg_010","translation":[-0.48409998416900635,-32.551483154296875,0.11290349811315536],"children":[20,23]},{"name":"RightFoot_011","translation":[-0.4389853775501251,-32.63565444946289,-3.012681484222412],"children":[21,22]},{"name":"RightToeBase_012","translation":[-0.9701685309410095,-13.22535228729248,11.86422348022461]},{"name":"RFootTongue_013","translation":[-1.1422202587127686,-1.059790015220642,6.6651611328125]},{"name":"RightPantLeg_014","translation":[-1.1535006761550903,-16.51930809020996,-2.2847721576690674]},{"name":"Spine_015","translation":[0,7.722017765045166,1.166203260421753],"children":[25]},{"name":"Spine1_016","translation":[1.5855036172851555e-9,12.024084091186523,0.2487662434577942],"children":[26,81,82]},{"name":"Spine2_017","translation":[-1.1558599632977007e-9,11.503032684326172,-0.49123966693878174],"children":[27,32,52,72,73,75,78]},{"name":"Neck_018","translation":[1.87095849923935e-9,18.43068504333496,-3.123053789138794],"children":[28]},{"name":"Head_019","translation":[-1.2556162332089116e-8,9.051078796386719,1.0340213775634766],"children":[29,30,31]},{"name":"HairB_020","translation":[0.20839735865592957,24.786067962646484,24.82230567932129]},{"name":"HairA_021","translation":[-7.08107328414917,24.428293228149414,23.19663429260254]},{"name":"Hat_022","translation":[16.72879981994629,15.048301696777344,-15.43964958190918]},{"name":"LeftShoulder_023","translation":[6.197824001312256,13.665234565734863,-4.064722537994385],"children":[33]},{"name":"LeftArm_024","translation":[7.77813196182251,-0.1870722621679306,-1.7092818021774292],"children":[34]},{"name":"LeftForeArm_025","translation":[21.95469856262207,-1.9895196601282805e-13,-2.041093349456787],"children":[35,51]},{"name":"LeftHand_026","translation":[22.99290657043457,-4.263256414560601e-14,-0.8709003925323486],"children":[36,39,42,45,48]},{"name":"LeftHandThumb1_027","translation":[3.5939762592315674,-1.4603580236434937,3.3655693531036377],"children":[37]},{"name":"LeftHandThumb2_028","translation":[3.0167102813720703,-1.5619701147079468,2.1190223693847656],"children":[38]},{"name":"LeftHandThumb3_029","translation":[3.029561758041382,-2.099797248840332,1.4158436059951782]},{"name":"LeftHandIndex1_030","translation":[11.372509002685547,0.06500876694917679,3.6991539001464844],"children":[40]},{"name":"LeftHandIndex2_031","translation":[3.2291905879974365,-0.5749147534370422,-0.14349758625030518],"children":[41]},{"name":"LeftHandIndex3_032","translation":[3.1111576557159424,-1.1356314420700073,-0.2807941436767578]},{"name":"LeftHandMiddle1_033","translation":[11.327374458312988,0.42668983340263367,-0.09818025678396225],"children":[43]},{"name":"LeftHandMiddle2_034","translation":[3.2909348011016846,-0.8754621148109436,-0.18692748248577118],"children":[44]},{"name":"LeftHandMiddle3_035","translation":[3.0945494174957275,-1.1502248048782349,-0.2675879895687103]},{"name":"LeftHandRing1_036","translation":[11.497078895568848,-0.008906432427465916,-3.0700507164001465],"children":[46]},{"name":"LeftHandRing2_037","translation":[2.8813388347625732,-0.9928569793701172,-0.18692748248577118],"children":[47]},{"name":"LeftHandRing3_038","translation":[3.022745370864868,-1.2810167074203491,-0.2909604609012604]},{"name":"LeftHandPinky1_039","translation":[10.529485702514648,-1.373091459274292,-5.625614643096924],"children":[49]},{"name":"LeftHandPinky2_040","translation":[2.6790237426757812,-0.9500736594200134,-0.33055397868156433],"children":[50]},{"name":"LeftHandPinky3_041","translation":[2.7245726585388184,-0.843614399433136,-0.25268465280532837]},{"name":"LSleeve_042","translation":[6.6332011222839355,-0.34488391876220703,-1.2636502981185913]},{"name":"RightShoulder_043","translation":[-6.197823524475098,13.665234565734863,-4.064722537994385],"children":[53]},{"name":"RightArm_044","translation":[-7.778132438659668,-0.18707194924354553,-1.7092819213867188],"children":[54]},{"name":"RightForeArm_045","translation":[-21.95469856262207,-3.979039320256561e-13,-2.041093349456787],"children":[55,71]},{"name":"RightHand_046","translation":[-22.99290657043457,-3.126388037344441e-13,-0.8709003925323486],"children":[56,59,62,65,68]},{"name":"RightHandThumb1_047","translation":[-3.5939767360687256,-1.4603583812713623,3.365569591522217],"children":[57]},{"name":"RightHandThumb2_048","translation":[-3.0167102813720703,-1.5619701147079468,2.1190223693847656],"children":[58]},{"name":"RightHandThumb3_049","translation":[-3.029561758041382,-2.099797248840332,1.4158436059951782]},{"name":"RightHandIndex1_050","translation":[-11.372509956359863,0.06500845402479172,3.6991536617279053],"children":[60]},{"name":"RightHandIndex2_051","translation":[-3.2291905879974365,-0.5749147534370422,-0.14349757134914398],"children":[61]},{"name":"RightHandIndex3_052","translation":[-3.1111576557159424,-1.1356314420700073,-0.2807941436767578]},{"name":"RightHandMiddle1_00","translation":[-11.327374458312988,0.426689475774765,-0.09818016737699509],"children":[63]},{"name":"RightHandMiddle2_053","translation":[-3.2909348011016846,-0.8754621148109436,-0.18692749738693237],"children":[64]},{"name":"RightHandMiddle3_054","translation":[-3.0945491790771484,-1.1502246856689453,-0.26758795976638794]},{"name":"RightHandRing1_055","translation":[-11.497079849243164,-0.008906763046979904,-3.0700507164001465],"children":[66]},{"name":"RightHandRing2_056","translation":[-2.8813390731811523,-0.9928569793701172,-0.18692748248577118],"children":[67]},{"name":"RightHandRing3_057","translation":[-3.0227456092834473,-1.2810168266296387,-0.2909604609012604]},{"name":"RightHandPinky1_058","translation":[-10.529484748840332,-1.3730919361114502,-5.625614166259766],"children":[69]},{"name":"RightHandPinky2_059","translation":[-2.6790237426757812,-0.9500736594200134,-0.33055397868156433],"children":[70]},{"name":"RightHandPinky3_060","translation":[-2.7245726585388184,-0.8436144590377808,-0.252684623003006]},{"name":"RSleeve_061","translation":[-6.633200645446777,-0.34488391876220703,-1.2636502981185913]},{"name":"Backpack_062","translation":[-4.296437094986061e-10,-2.4714865684509277,36.6774787902832]},{"name":"Hood_063","translation":[-4.296435429651524e-10,18.754146575927734,-10.430962562561035],"children":[74]},{"name":"Hood1_064","translation":[-1.1862204088395885e-15,-5.011016368865967,-7.685928821563721]},{"name":"LHoodieString_065","translation":[5.250455379486084,16.39773941040039,3.089918613433838],"children":[76]},{"name":"LHoodieString1_066","translation":[0.25771135091781616,-6.3643012046813965,3.6945862770080566],"children":[77]},{"name":"LHoodieString2_067","translation":[5.329070518200751e-15,-9.643807411193848,2.679131507873535]},{"name":"RHoodieString_068","translation":[-5.250454902648926,16.39773941040039,3.089918613433838],"children":[79]},{"name":"RHoodieString1_069","translation":[-0.2577109932899475,-6.3643012046813965,3.6945862770080566],"children":[80]},{"name":"RHoodieString2_070","translation":[-5.329070518200751e-15,-9.643807411193848,2.679131507873535]},{"name":"LBackpack_Strap_071","translation":[15.223173141479492,-7.71978759765625,-6.610897064208984]},{"name":"RBackpack_Strap_072","translation":[-15.222999572753906,-7.71978759765625,-6.610897064208984]},{"name":"BoyFacialAnim_Joint_073","translation":[1,-82.20806884765625,-1.550922155380249]},{"name":"Boy01_Body_Geo"},{"name":"h_Geo"},{"name":"Boy01_Eyes_Geo"},{"name":"Boy01_Brows_Geo"}],"skins":[{"inverseBindMatrices":35,"skeleton":5,"joints":[5,10,11,12,13,14,15,16,17,18,19,20,21,22,23,24,25,26,27,28,29,30,31,32,33,34,35,36,37,38,39,40,41,42,43,44,45,46,47,48,49,50,51,52,53,54,55,56,57,58,59,60,61,62,63,64,65,66,67,68,69,70,71,72,73,74,75,76,77,78,79,80,81,82,83]}],"animations":[{"name":"mixamo.com","samplers":[{"input":36,"output":37,"interpolation":"LINEAR"},{"input":38,"output":39,"interpolation":"LINEAR"},{"input":40,"output":41,"interpolation":"LINEAR"},{"input":42,"output":43,"interpolation":"LINEAR"},{"input":44,"output":45,"interpolation":"LINEAR"},{"input":46,"output":47,"interpolation":"LINEAR"},{"input":48,"output":49,"interpolation":"LINEAR"},{"input":50,"output":51,"interpolation":"LINEAR"},{"input":52,"output":53,"interpolation":"LINEAR"},{"input":54,"output":55,"interpolation":"LINEAR"},{"input":56,"output":57,"interpolation":"LINEAR"},{"input":58,"output":59,"interpolation":"LINEAR"},{"input":60,"output":61,"interpolation":"LINEAR"},{"input":62,"output":63,"interpolation":"LINEAR"},{"input":64,"output":65,"interpolation":"LINEAR"},{"input":66,"output":67,"interpolation":"LINEAR"},{"input":68,"output":69,"interpolation":"LINEAR"},{"input":70,"output":71,"interpolation":"LINEAR"},{"input":72,"output":73,"interpolation":"LINEAR"},{"input":74,"output":75,"interpolation":"LINEAR"},{"input":76,"output":77,"interpolation":"LINEAR"},{"input":78,"output":79,"interpolation":"LINEAR"},{"input":80,"output":81,"interpolation":"LINEAR"},{"input":82,"output":83,"interpolation":"LINEAR"},{"input":84,"output":85,"interpolation":"LINEAR"},{"input":86,"output":87,"interpolation":"LINEAR"},{"input":88,"output":89,"interpolation":"LINEAR"},{"input":90,"output":91,"interpolation":"LINEAR"},{"input":92,"output":93,"interpolation":"LINEAR"},{"input":94,"output":95,"interpolation":"LINEAR"},{"input":96,"output":97,"interpolation":"LINEAR"},{"input":98,"output":99,"interpolation":"LINEAR"},{"input":100,"output":101,"interpolation":"LINEAR"},{"input":102,"output":103,"interpolation":"LINEAR"},{"input":104,"output":105,"interpolation":"LINEAR"},{"input":106,"output":107,"interpolation":"LINEAR"},{"input":108,"output":109,"interpolation":"LINEAR"},{"input":110,"output":111,"interpolation":"LINEAR"},{"input":112,"output":113,"interpolation":"LINEAR"},{"input":114,"output":115,"interpolation":"LINEAR"},{"input":116,"output":117,"interpolation":"LINEAR"},{"input":118,"output":119,"interpolation":"LINEAR"},{"input":120,"output":121,"interpolation":"LINEAR"},{"input":122,"output":123,"interpolation":"LINEAR"},{"input":124,"output":125,"interpolation":"LINEAR"},{"input":126,"output":127,"interpolation":"LINEAR"},{"input":128,"output":129,"interpolation":"LINEAR"},{"input":130,"output":131,"interpolation":"LINEAR"},{"input":132,"output":133,"interpolation":"LINEAR"},{"input":134,"output":135,"interpolation":"LINEAR"},{"input":136,"output":137,"interpolation":"LINEAR"},{"input":138,"output":139,"interpolation":"LINEAR"},{"input":140,"output":141,"interpolation":"LINEAR"},{"input":142,"output":143,"interpolation":"LINEAR"},{"input":144,"output":145,"interpolation":"LINEAR"},{"input":146,"output":147,"interpolation":"LINEAR"},{"input":148,"output":149,"interpolation":"LINEAR"}],"channels":[{"sampler":0,"target":{"node":14,"path":"rotation"}},{"sampler":1,"target":{"node":13,"path":"rotation"}},{"sampler":2,"target":{"node":12,"path":"rotation"}},{"sampler":3,"target":{"node":20,"path":"rotation"}},{"sampler":4,"target":{"node":19,"path":"rotation"}},{"sampler":5,"target":{"node":18,"path":"rotation"}},{"sampler":6,"target":{"node":11,"path":"rotation"}},{"sampler":7,"target":{"node":28,"path":"translation"}},{"sampler":8,"target":{"node":28,"path":"rotation"}},{"sampler":9,"target":{"node":27,"path":"translation"}},{"sampler":10,"target":{"node":27,"path":"rotation"}},{"sampler":11,"target":{"node":37,"path":"rotation"}},{"sampler":12,"target":{"node":36,"path":"rotation"}},{"sampler":13,"target":{"node":40,"path":"rotation"}},{"sampler":14,"target":{"node":39,"path":"rotation"}},{"sampler":15,"target":{"node":43,"path":"rotation"}},{"sampler":16,"target":{"node":42,"path":"rotation"}},{"sampler":17,"target":{"node":46,"path":"rotation"}},{"sampler":18,"target":{"node":45,"path":"rotation"}},{"sampler":19,"target":{"node":49,"path":"rotation"}},{"sampler":20,"target":{"node":48,"path":"rotation"}},{"sampler":21,"target":{"node":35,"path":"translation"}},{"sampler":22,"target":{"node":35,"path":"rotation"}},{"sampler":23,"target":{"node":34,"path":"translation"}},{"sampler":24,"target":{"node":34,"path":"rotation"}},{"sampler":25,"target":{"node":33,"path":"rotation"}},{"sampler":26,"target":{"node":32,"path":"rotation"}},{"sampler":27,"target":{"node":57,"path":"rotation"}},{"sampler":28,"target":{"node":56,"path":"rotation"}},{"sampler":29,"target":{"node":60,"path":"rotation"}},{"sampler":30,"target":{"node":59,"path":"rotation"}},{"sampler":31,"target":{"node":63,"path":"rotation"}},{"sampler":32,"target":{"node":62,"path":"rotation"}},{"sampler":33,"target":{"node":66,"path":"rotation"}},{"sampler":34,"target":{"node":65,"path":"rotation"}},{"sampler":35,"target":{"node":69,"path":"rotation"}},{"sampler":36,"target":{"node":68,"path":"rotation"}},{"sampler":37,"target":{"node":55,"path":"translation"}},{"sampler":38,"target":{"node":55,"path":"rotation"}},{"sampler":39,"target":{"node":54,"path":"translation"}},{"sampler":40,"target":{"node":54,"path":"rotation"}},{"sampler":41,"target":{"node":53,"path":"rotation"}},{"sampler":42,"target":{"node":52,"path":"rotation"}},{"sampler":43,"target":{"node":73,"path":"translation"}},{"sampler":44,"target":{"node":73,"path":"rotation"}},{"sampler":45,"target":{"node":76,"path":"rotation"}},{"sampler":46,"target":{"node":75,"path":"rotation"}},{"sampler":47,"target":{"node":79,"path":"rotation"}},{"sampler":48,"target":{"node":78,"path":"rotation"}},{"sampler":49,"target":{"node":26,"path":"translation"}},{"sampler":50,"target":{"node":26,"path":"rotation"}},{"sampler":51,"target":{"node":25,"path":"translation"}},{"sampler":52,"target":{"node":25,"path":"rotation"}},{"sampler":53,"target":{"node":24,"path":"translation"}},{"sampler":54,"target":{"node":24,"path":"rotation"}},{"sampler":55,"target":{"node":10,"path":"translation"}},{"sampler":56,"target":{"node":10,"path":"rotation"}}]}],"scenes":[{"name":"Sketchfab_Scene","nodes":[0]}],"scene":0,"extensionsUsed":["KHR_materials_ior","KHR_materials_specular"]}